# xmcd CD database file
#
# Track frame offsets:
#	150
#	15283
#	29221
#	34479
#	52656
#	69175
#	151569
#	165136
#	167818
#	200543
#	202388
#	215241
#	235564
#	313129
#
# Disc length: 4331 seconds
#
# Revision: 0
# Processed by: cddbd v1.5.1PL2 Copyright (c) Steve Scherf et al.
# Submitted via: Feurio! 1.68 - http://www.feurio.com
#
DISCID=b710e90e
DTITLE=James Brown - "LIVE" At The Apollo
DYEAR=1900
DGENRE=Soul
TTITLE0=Think
TTITLE1=I Want To Be Around
TTITLE2=Thanks
TTITLE3=That's Life
TTITLE4=Kansas City
TTITLE5=There Was A Time - Cold Sweat
TTITLE6=It May Be The Last Time
TTITLE7=I Feel Good
TTITLE8=Prisoner Of Love
TTITLE9=Out Of Sight
TTITLE10=Try Me
TTITLE11=Bring It Up
TTITLE12=It's A Man's Man's Man's World
TTITLE13=Please Please Please
EXTD=
EXTT0=
EXTT1=
EXTT2=
EXTT3=
EXTT4=
EXTT5=
EXTT6=
EXTT7=
EXTT8=
EXTT9=
EXTT10=
EXTT11=
EXTT12=
EXTT13=
PLAYORDER=
